<svg xmlns="http://www.w3.org/2000/svg" viewBox="0 0 512 512"><rect width="512" height="512" rx="96" fill="#17324d"/><path d="M94 332c44-80 88-120 132-120 33 0 58 20 76 60 22-51 50-77 84-77 38 0 72 39 102 117v92H94z" fill="#f6f0df"/><path d="M82 345c44-84 91-126 142-126 35 0 64 22 86 67 20-52 48-78 84-78 34 0 66 36 96 108v96H82z" fill="#4d7f2a"/><path d="M86 388h340" stroke="#fbfaf7" stroke-width="28" stroke-linecap="round" stroke-dasharray="1 52"/><circle cx="122" cy="130" r="30" fill="#d8751e"/><text x="256" y="158" text-anchor="middle" font-family="Arial" font-size="76" font-weight="800" fill="#fbfaf7">W</text></svg>